<svg id="Layer_1" data-name="Layer 1" xmlns="http://www.w3.org/2000/svg" viewBox="0 0 1671.27705 1121.97215">
  <defs>
    <style>
      .cls-1 {
        fill: #591cb6;
      }
    </style>
  </defs>
  <title>menu-voot-bg</title>
  <path class="cls-1" d="M769.52,604.481a49.94294,49.94294,0,1,0-.295-0.191C769.323,604.355,769.421,604.418,769.52,604.481Zm45.026-70.315a33.51544,33.51544,0,1,1-46.275,10.261c0.03-.048.062-0.096,0.092-0.144a33.62353,33.62353,0,0,1,46.183-10.117h0ZM1063.1,956.108a49.93114,49.93114,0,1,0-.292-0.189C1062.905,955.983,1063.002,956.046,1063.1,956.108Zm45.03-70.317a33.517,33.517,0,1,1-46.27515,10.269c0.032-.05.063-0.099,0.095-0.148A33.6313,33.6313,0,0,1,1108.13,885.791h0ZM1004.99,585.552a50.01118,50.01118,0,1,0-.288-0.187C1004.797,585.428,1004.893,585.491,1004.99,585.552Zm45.02-70.317a33.5137,33.5137,0,1,1-46.27106,10.263c0.03-.048.061-0.095,0.092-0.143A33.62891,33.62891,0,0,1,1050.01,515.235ZM-214.14,285.008a49.81467,49.81467,0,0,0,68.827-15.023c0.015-.022.028-0.044,0.042-0.066a50.1415,50.1415,0,0,0-14.965-69.092,49.81315,49.81315,0,0,0-68.824,15.029c-0.014.021-.026,0.041-0.04,0.062A50.13948,50.13948,0,0,0-214.14,285.008Zm45.026-70.316a33.62419,33.62419,0,0,1,10.035,46.332,33.3995,33.3995,0,0,1-46.131,10.151l-0.052-.032A33.62368,33.62368,0,0,1-215.3,224.811a33.39966,33.39966,0,0,1,46.13-10.155l0.056,0.036h0ZM673.759,850.437a49.85568,49.85568,0,1,0-.296-0.191C673.562,850.31,673.66,850.374,673.759,850.437Zm45.025-70.317a33.51673,33.51673,0,1,1-46.275,10.263c0.03-.048.061-0.095,0.091-0.143A33.62444,33.62444,0,0,1,718.784,780.12ZM1188.25,898.237a49.85567,49.85567,0,1,0-.293-0.189Q1188.10407,898.144,1188.25,898.237Zm45.03-70.317a33.51667,33.51667,0,1,1-46.274,10.269c0.031-.05.063-0.099,0.095-0.148A33.61735,33.61735,0,0,1,1233.28,827.92ZM707.05,404.727a49.77787,49.77787,0,1,0-.294-0.189C706.854,404.601,706.951,404.665,707.05,404.727Zm45.025-70.318a33.51706,33.51706,0,1,1-46.274,10.267c0.03-.049.062-0.097,0.093-0.146A33.62373,33.62373,0,0,1,752.075,334.409ZM948.234,395.97a49.8239,49.8239,0,1,0-.298-0.192C948.035,395.843,948.134,395.907,948.234,395.97Zm45.025-70.317a33.51691,33.51691,0,1,1-46.275,10.266c0.031-.049.062-0.097,0.093-0.146a33.61818,33.61818,0,0,1,46.182-10.12h0Zm140.181,436.447a49.93122,49.93122,0,1,0-.292-0.189C1133.244,761.975,1133.342,762.038,1133.43994,762.1Zm45.03-70.317a33.51684,33.51684,0,1,1-46.275,10.26807c0.032-.05.063-0.099,0.095-0.148A33.61785,33.61785,0,0,1,1178.47,691.783h0Zm-15.74-179.916a49.85072,49.85072,0,1,0-.293-0.189c0.097,0.064.19495,0.126,0.293,0.189h0Zm45.03-70.315a33.51681,33.51681,0,1,1-46.275,10.267c0.031-.049.063-0.099,0.095-0.148A33.61675,33.61675,0,0,1,1207.76,441.552h0ZM1357.22,695.6a49.93122,49.93122,0,1,0-.292-0.189C1357.025,695.475,1357.12195,695.538,1357.22,695.6Zm45.03-70.318a33.51725,33.51725,0,1,1-46.275,10.269c0.031-.05.063-0.1,0.095-0.148a33.6201,33.6201,0,0,1,46.181-10.118V625.282h-0.001ZM879.284,650.327a8.1843,8.1843,0,0,0,8.588.176l28.893-16.978,5.176,8.88a8.18793,8.18793,0,0,0,11.194,2.962l0.034-.02,35.895-21.093a8.25994,8.25994,0,0,0,2.944-11.271L930,540.906a8.19148,8.19148,0,0,0-11.198-2.961c-0.01.006-.021,0.012-0.031,0.019l-35.896,21.093a8.258,8.258,0,0,0-2.942,11.27l5.176,8.881-28.892,16.978a8.2568,8.2568,0,0,0-2.944,11.271l23.377,40.101A8.17257,8.17257,0,0,0,879.284,650.327Zm44.87-35a8.18239,8.18239,0,0,0-8.587-.176L886.674,632.13l-15.092-25.893,28.892-16.978a8.25858,8.25858,0,0,0,2.944-11.271l-5.177-8.881,21.724-12.765,33.729,57.864-21.723,12.763-5.177-8.88a8.19686,8.19686,0,0,0-2.641-2.767V615.327h0.001ZM844.3,500.039a8.17616,8.17616,0,0,0,8.18.4l41.253-21.186a8.25649,8.25649,0,0,0,3.576-11.085l-15.222-29.891,9.135-4.691a8.259,8.259,0,0,0,3.578-11.087l-18.911-37.137a8.19005,8.19005,0,0,0-11.01-3.594l-0.033.017L790.7,419.864a8.25721,8.25721,0,0,0-3.577,11.085l18.911,37.138a8.19176,8.19176,0,0,0,11.011,3.594l0.033-.018,9.135-4.69,15.221,29.891A8.16218,8.16218,0,0,0,844.3,500.039Zm34.656-31.692-26.634,13.678L837.1,452.135a8.18869,8.18869,0,0,0-11.009-3.595l-0.034.018-9.135,4.69-11.444-22.475L865,400.2l11.443,22.476-9.135,4.691a8.2575,8.2575,0,0,0-3.577,11.085ZM712.573,739.973a8.17891,8.17891,0,0,0,7.912.533l41.989-19.677a8.2551,8.2551,0,0,0,3.973-10.948l-14.134-30.425,9.3-4.356a8.257,8.257,0,0,0,3.975-10.949l-17.562-37.8a8.187,8.187,0,0,0-10.87-3.99l-0.029.015-75.464,35.363a8.2551,8.2551,0,0,0-3.973,10.948l17.56,37.8a8.18791,8.18791,0,0,0,10.87,3.993l0.036-.017,9.3-4.357,14.136,30.424A8.17625,8.17625,0,0,0,712.573,739.973ZM748.1,709.392l-27.107,12.7L706.859,691.67a8.19039,8.19039,0,0,0-10.873-3.992,0.33727,0.33727,0,0,1-.033.016l-9.3,4.358-10.626-22.876,60.581-28.391,10.627,22.876-9.3,4.356a8.25745,8.25745,0,0,0-3.974,10.949ZM806.348,876.46a8.19733,8.19733,0,0,0,7.267.8l78.156-28.863a8.25066,8.25066,0,0,0,4.877-10.574l-14.323-39.153a8.193,8.193,0,0,0-10.502-4.895l-0.031.011-9.628,3.556-11.528-31.514a8.19511,8.19511,0,0,0-10.502-4.896l-0.032.012L796.615,777a8.25234,8.25234,0,0,0-4.878,10.574l11.529,31.516-9.629,3.556a8.251,8.251,0,0,0-4.877,10.574l14.322,39.153a8.23779,8.23779,0,0,0,3.26605,4.087h0Zm72.061-40.68-62.744,23.171L807,835.257l9.629-3.558a8.25277,8.25277,0,0,0,4.878-10.574l-11.529-31.514,28.076-10.369,11.528,31.516a8.19124,8.19124,0,0,0,10.497,4.896c0.012-.005.024-0.01,0.036-0.014l9.629-3.555Zm224.629,261.891a8.16427,8.16427,0,0,0,7.28.8l78.15-28.86a8.2479,8.2479,0,0,0,4.88-10.569l-14.31995-39.16a8.20008,8.20008,0,0,0-10.516-4.889l-0.024.009-9.63,3.56-11.52-31.518a8.20117,8.20117,0,0,0-10.515-4.893,0.18279,0.18279,0,0,0-.025.01l-43.48,16.059a8.24845,8.24845,0,0,0-4.88,10.572l11.53,31.52-9.63,3.55a8.25554,8.25554,0,0,0-4.88,10.58l14.319,39.15a8.17636,8.17636,0,0,0,3.261,4.07886h0ZM1175.109,1057l-62.74,23.171-8.67-23.68994,9.63-3.56006a8.264,8.264,0,0,0,4.88-10.58l-11.52905-31.511,28.069-10.369,11.53,31.52a8.19038,8.19038,0,0,0,10.49695,4.89294c0.011-.004.021-0.009,0.033-0.01294l9.63-3.56006Zm93.009-261.88a8.17065,8.17065,0,0,0,7.271.801l78.149-28.863a8.233,8.233,0,0,0,4.882-10.57l-0.002-.004-14.319-39.153a8.19119,8.19119,0,0,0-10.49695-4.896l-0.033.012L1323.93994,716l-11.53-31.515a8.20138,8.20138,0,0,0-10.514-4.893l-0.026.01-43.479,16.06a8.25017,8.25017,0,0,0-4.88,10.574l11.52905,31.514-9.63,3.558a8.2506,8.2506,0,0,0-4.88,10.574l14.33,39.152A8.18613,8.18613,0,0,0,1268.118,795.12h0Zm72.06091-40.676-62.74,23.172-8.67-23.694,9.63-3.557a8.25984,8.25984,0,0,0,4.88-10.575l-11.53-31.514,28.06995-10.368,11.53,31.515a8.201,8.201,0,0,0,10.51294,4.894l0.027-.01,9.63-3.558ZM1158.23,652.012a8.19479,8.19479,0,0,0,10.979-1.963l50.311-66.617a8.25705,8.25705,0,0,0-1.58-11.538l-33.13-25.177a8.19223,8.19223,0,0,0-11.479,1.572l-0.021.027-6.2,8.208-26.66-20.265a8.19158,8.19158,0,0,0-11.47705,1.569l-0.02295.03-27.989,37.066a8.25424,8.25424,0,0,0,1.579,11.538l26.66,20.266-6.199,8.206a8.25705,8.25705,0,0,0,1.58,11.538l33.13,25.177C1157.88,651.776,1158.05,651.9,1158.23,652.012Zm43.25-71.952-40.39,53.48-20.051-15.24,6.2-8.207a8.25568,8.25568,0,0,0-1.58-11.537L1119,578.295l18.069-23.932,26.66,20.266a8.19291,8.19291,0,0,0,11.478-1.57l0.022-.03,6.2-8.208ZM1309.8,587.741a8.18952,8.18952,0,0,0,10.47-1.351l28.2-30.682a8.25287,8.25287,0,0,0-.46-11.639l-7.53-6.975,22.7-24.7a8.26086,8.26086,0,0,0-.46-11.638l-34.03-31.5a8.18528,8.18528,0,0,0-11.567.439c-0.011.013-.021,0.024-0.032,0.036l-22.7,24.694-7.54-6.976a8.19144,8.19144,0,0,0-11.575.448l-0.025.027-28.199,30.682a8.251,8.251,0,0,0,.46,11.639l61.16,56.613a7.63227,7.63227,0,0,0,1.12805.88306h0ZM1330.85,550.602l-17.08,18.568-49.1-45.45,17.08-18.569,7.52905,6.977a8.192,8.192,0,0,0,11.57605-.451,0.285,0.285,0,0,0,.024-0.025l22.699-24.694,21.97095,20.337-22.7,24.699a8.25416,8.25416,0,0,0,.46,11.64Zm-622.8-1.9a8.19159,8.19159,0,0,0,10.971-1.967l50.307-66.616a8.25028,8.25028,0,0,0-1.58-11.537l-33.128-25.175a8.19157,8.19157,0,0,0-11.477,1.57l-0.023.03-6.199,8.208-26.664-20.266a8.19453,8.19453,0,0,0-11.48,1.574l-0.02.026-27.992,37.066a8.25149,8.25149,0,0,0,1.58,11.538l26.664,20.265-6.2,8.207a8.2523,8.2523,0,0,0,1.581,11.537l33.128,25.178q0.26248,0.19052.533,0.363v-0.001H708.05Zm43.238-71.956L710.9,530.23l-20.048-15.237,6.2-8.207a8.25338,8.25338,0,0,0-1.58-11.538l-26.665-20.265,18.072-23.931,26.665,20.265a8.1914,8.1914,0,0,0,11.477-1.569l0.023-.03,6.199-8.208ZM1045.78894,855.47a8.193,8.193,0,0,0,10.8-1.751l21.109-26.082,7.96,6.482a8.19932,8.19932,0,0,0,11.535-1.19l0.016-.019,26.22-32.399a8.25281,8.25281,0,0,0-1.18994-11.586L1057.631,736.3a8.18236,8.18236,0,0,0-11.512,1.174,0.42226,0.42226,0,0,0-.028.035l-26.23,32.399a8.25987,8.25987,0,0,0,1.2,11.586l7.95,6.482-21.101,26.083a8.2443,8.2443,0,0,0,1.19,11.585l35.95,29.28a9.16918,9.16918,0,0,0,.739.548V855.47h-0.00012Zm35.15-46.357a8.19066,8.19066,0,0,0-10.8,1.751l-21.11,26.082-23.21-18.899,21.11-26.082a8.2463,8.2463,0,0,0-1.18994-11.586l-7.96-6.482,15.87-19.61,51.86,42.246-15.87,19.611-7.96-6.484a8.95649,8.95649,0,0,0-.739-0.543ZM787.346,732.084a8.179,8.179,0,0,0,6.334,1.078L884.243,711.5a8.24851,8.24851,0,0,0,3.355-14.347l-71.533-59.684a8.20007,8.20007,0,0,0-13.242,4.461l-19.029,81.35A8.23463,8.23463,0,0,0,787.346,732.084Zm77.134-32.79-61.669,14.754,12.958-55.4ZM634.088,647.977a8.1808,8.1808,0,0,0,10.274-1.149l65.443-66.487a8.239,8.239,0,0,0-4.724-13.945l-92.216-12.587a8.23609,8.23609,0,0,0-8.886,10.818L630.752,643.7A8.23292,8.23292,0,0,0,634.088,647.977Zm52.5-67.48-44.563,45.275L623.8,571.927Zm552.93994,444.313a8.33307,8.33307,0,0,0,2.601,1.1,8.20017,8.20017,0,0,0,7.68005-2.239l65.44006-66.493a8.23465,8.23465,0,0,0-4.72-13.946l-92.22-12.587a8.23485,8.23485,0,0,0-8.88,10.818l26.77,79.077a8.26355,8.26355,0,0,0,3.332,4.27H1239.528Zm52.509-67.475-44.569,45.275-18.23-53.847ZM902.092,938.668a8.17779,8.17779,0,0,0,6.581,1.016l80.364-21.896a8.25316,8.25316,0,0,0,3.986-13.435l-61.916-69.673a8.19966,8.19966,0,0,0-14.174,3.862l-18.448,91.567a8.248,8.248,0,0,0,2.432,7.639A8.09188,8.09188,0,0,0,902.092,938.668Zm69.84-33.283-54.725,14.908,12.563-62.354Zm98.058-183.751a8.17815,8.17815,0,0,0,8.56995.179,8.26649,8.26649,0,0,0,4.06006-7.648l-5.97-93.199a8.19858,8.19858,0,0,0-12.319-6.576L992.4,656.534a8.253,8.253,0,0,0-.361,14.009l77.892,51.058Zm-8.871-86.301,4.061,63.468-53.04-34.767ZM929.36,523.171a8.18724,8.18724,0,0,0,9.86-.753l69.899-61.751a8.24979,8.24979,0,0,0-2.33-13.813l-77.133-31.36a8.22032,8.22032,0,0,0-11.271,8.282l7.231,93.111A8.23934,8.23934,0,0,0,929.36,523.171Zm58.945-66.053-47.601,42.05-4.925-63.399Zm303.38495,453.293a8.17164,8.17164,0,0,0,6.81995.946l89.05994-27.245a8.25719,8.25719,0,0,0,3.58-13.55l-57.271-60.574a8.20031,8.20031,0,0,0-13.67,2.868l-31.8,87.818a8.25366,8.25366,0,0,0,1.76,8.477A8.11438,8.11438,0,0,0,1291.68994,910.411Zm78.41-38.168-60.65,18.558L1331.1,831ZM1221.40906,679.192a8.16936,8.16936,0,0,0,7.28.788l87.3-32.51a8.2612,8.2612,0,0,0,2.761-13.74l-60.761-57.045a8.201,8.201,0,0,0-13.48,3.678l-26.53,89.557a8.2327,8.2327,0,0,0,2.25,8.355A8.13742,8.13742,0,0,0,1221.40906,679.192Zm76.4209-42.526L1238.39,658.801l18.069-60.983ZM811.725,365.051a8.18137,8.18137,0,0,0,7.356.761l77.809-29.8a8.25388,8.25388,0,0,0,2.635-13.765L831.011,259.1a8.20858,8.20858,0,0,0-13.724,5.255L808,357.301a8.236,8.236,0,0,0,3.176,7.357A6.21866,6.21866,0,0,0,811.725,365.051Zm66.914-39.673-52.983,20.29,6.328-63.291ZM600.965,810.5a8.19387,8.19387,0,0,0,11.326-2.455,8.055,8.055,0,0,0,.447-0.787l41.776-83.511a8.22235,8.22235,0,0,0-8.79-11.793l-91.606,16.637a8.24948,8.24948,0,0,0-5.119,13.042l49.83,66.87A8.20268,8.20268,0,0,0,600.965,810.5Zm31.512-79.4-28.446,56.86L570.1,742.426ZM1083.03,481.28a8.1986,8.1986,0,0,0,12.27-4.483l27.77-89.18a8.213,8.213,0,0,0-10.58-10.209L1024.76,408.7a8.25427,8.25427,0,0,0-2.95,13.701l59.97,57.885a8.43732,8.43732,0,0,0,1.25.989v0.005Zm19.48-82.831-18.91,60.726-40.84-39.415ZM997.8,1054.76a8.188,8.188,0,0,0,12.268-4.48l27.771-89.181a8.213,8.213,0,0,0-10.58-10.209L939.53,982.183a8.25588,8.25588,0,0,0-2.952,13.701l59.967,57.887A8.16366,8.16366,0,0,0,997.8,1054.76Zm19.469-82.831-18.9,60.73-40.835-39.421ZM298.376,202.9a50.73523,50.73523,0,1,0,31.048,64.685c0.01-.028.021-0.057,0.03-0.085a50.57362,50.57362,0,0,0-30.856-64.522C298.524,202.952,298.449,202.926,298.376,202.9ZM270.59,282.975a34.02209,34.02209,0,1,1,43.213-21.157c-0.021.063-.043,0.126-0.065,0.188A34.074,34.074,0,0,1,270.59,282.975Zm210.49,260.66a50.73513,50.73513,0,1,0,31.045,64.687c0.012-.032.022-0.064,0.033-0.096a50.573,50.573,0,0,0-30.867-64.518C481.221,543.684,481.151,543.66,481.08,543.635ZM453.3,623.707a34.02192,34.02192,0,1,1,43.213-21.156c-0.021.063-.043,0.125-0.065,0.188A34.07549,34.07549,0,0,1,453.3,623.707Zm37.561-292.864a50.73527,50.73527,0,1,0,31.044,64.687l0.033-.095a50.57288,50.57288,0,0,0-30.868-64.517c-0.071-.025-0.143-0.051-0.214-0.075H490.861v0Zm-27.788,80.071a34.02209,34.02209,0,1,1,43.214-21.156c-0.022.063-.044,0.125-0.065,0.188a34.07454,34.07454,0,0,1-43.153,20.969h0.004V410.914ZM681.74,214.82a50.73542,50.73542,0,1,0,31.045,64.686c0.012-.031.022-0.063,0.033-0.094a50.57156,50.57156,0,0,0-30.864-64.517C681.882,214.87,681.811,214.844,681.74,214.82Zm-27.788,80.073a34.02318,34.02318,0,1,1,43.214-21.16c-0.021.063-.043,0.127-0.065,0.189A34.07537,34.07537,0,0,1,653.952,294.893ZM224.8,294.536a50.73641,50.73641,0,1,0,31.044,64.689c0.012-.032.022-0.064,0.034-0.096a50.57436,50.57436,0,0,0-30.866-64.519C224.942,294.586,224.87,294.56,224.8,294.536ZM197.011,374.61a34.02286,34.02286,0,1,1,43.214-21.158c-0.021.063-.043,0.126-0.064,0.188A34.07793,34.07793,0,0,1,197.011,374.61Zm96.509,34.676a50.7354,50.7354,0,1,0,31.048,64.686c0.011-.031.021-0.063,0.032-0.093a50.5728,50.5728,0,0,0-30.865-64.518c-0.072-.024-0.143-0.05-0.215-0.075h0Zm-27.786,80.072a34.02209,34.02209,0,1,1,43.214-21.157c-0.021.063-.044,0.126-0.065,0.188a34.076,34.076,0,0,1-43.149,20.969h0ZM105.071,515.651a50.73542,50.73542,0,1,0,31.046,64.687c0.011-.031.021-0.063,0.032-0.095a50.57291,50.57291,0,0,0-30.866-64.518C105.212,515.701,105.142,515.676,105.071,515.651ZM77.284,595.724a34.02287,34.02287,0,1,1,43.214-21.158c-0.021.063-.043,0.126-0.065,0.189A34.07387,34.07387,0,0,1,77.284,595.724ZM509.14,97.848a50.73511,50.73511,0,1,0,31.045,64.686c0.011-.031.021-0.063,0.033-0.095a50.57252,50.57252,0,0,0-30.865-64.517C509.281,97.897,509.211,97.873,509.14,97.848ZM481.354,177.92a34.02191,34.02191,0,1,1,43.212-21.159c-0.021.063-.044,0.127-0.065,0.19A34.07668,34.07668,0,0,1,481.354,177.92Zm90.375,262.322a8.30047,8.30047,0,0,0-8.51,1.87L538.74,465.733l-7.2-7.528a8.29882,8.29882,0,0,0-11.734-.261c-0.011.011-.021,0.021-0.031,0.03L489.361,487.32a8.38338,8.38338,0,0,0-.24,11.817l58.454,61.1a8.3,8.3,0,0,0,11.735.263c0.011-.01.021-0.021,0.032-0.03l30.411-29.347a8.38342,8.38342,0,0,0,.24-11.817l-7.199-7.528,24.478-23.62a8.38222,8.38222,0,0,0,.24-11.816l-32.524-34A8.27743,8.27743,0,0,0,571.729,440.242Zm-35.975,45.2a8.30047,8.30047,0,0,0,8.51-1.87l24.478-23.62,21,21.949-24.479,23.621a8.38156,8.38156,0,0,0-.24,11.817l7.2,7.527-18.405,17.761L506.89,493.572l18.399-17.759,7.2,7.527a8.26549,8.26549,0,0,0,3.265,2.103v-0.001H535.754Zm17.711-279.859a8.30727,8.30727,0,0,0-7.354.944L475.864,253.59a8.38508,8.38508,0,0,0-2.312,11.592L496.925,300.4a8.29957,8.29957,0,0,0,11.503,2.335l0.037-.024,8.653-5.8,18.813,28.343a8.30046,8.30046,0,0,0,11.503,2.335c0.013-.008.024-0.017,0.037-0.024l39.086-26.188a8.38389,8.38389,0,0,0,2.312-11.591l-18.812-28.343,8.654-5.8a8.38406,8.38406,0,0,0,2.312-11.591L557.65,208.839a8.32069,8.32069,0,0,0-4.186-3.255v-0.001h0.001Zm-61.447,57.27,56.4-37.783,14.145,21.31-8.654,5.801a8.38369,8.38369,0,0,0-2.312,11.591L570.4,292.116l-25.235,16.907L526.353,280.68a8.29984,8.29984,0,0,0-11.503-2.336c-0.013.008-.024,0.017-0.037,0.024l-8.654,5.8ZM241.538,68.542a8.27908,8.27908,0,0,0-7.359.941l-70.248,47.063a8.38505,8.38505,0,0,0-2.312,11.592l23.373,35.213a8.30055,8.30055,0,0,0,11.503,2.336l0.037-.024,8.654-5.8L224,188.206a8.30073,8.30073,0,0,0,11.503,2.336,0.38686,0.38686,0,0,1,.037-0.024l39.086-26.188a8.385,8.385,0,0,0,2.312-11.591L258.125,124.4l8.654-5.8a8.38417,8.38417,0,0,0,2.312-11.592L245.719,71.793A8.28736,8.28736,0,0,0,241.538,68.542ZM180.085,125.81l56.399-37.784,14.146,21.311-8.655,5.801a8.38274,8.38274,0,0,0-2.311,11.591l18.812,28.343-25.235,16.906-18.812-28.342a8.30009,8.30009,0,0,0-11.503-2.337c-0.013.008-.024,0.017-0.037,0.024l-8.655,5.8ZM166.967,399.991a8.28326,8.28326,0,0,0-7.359.942L89.36,448a8.38416,8.38416,0,0,0-2.312,11.592l23.374,35.209a8.29408,8.29408,0,0,0,11.493,2.342l0.046-.03,8.656-5.8,18.812,28.343a8.30074,8.30074,0,0,0,11.503,2.336,0.38371,0.38371,0,0,1,.037-0.024l39.086-26.188a8.38412,8.38412,0,0,0,2.313-11.591l-18.813-28.343,8.655-5.8a8.38507,8.38507,0,0,0,2.312-11.592l-23.373-35.212A8.28835,8.28835,0,0,0,166.967,399.991ZM105.514,457.26l56.4-37.784,14.145,21.311-8.655,5.801a8.38562,8.38562,0,0,0-2.311,11.591L183.9,486.52l-25.233,16.906-18.813-28.343a8.30054,8.30054,0,0,0-11.503-2.336c-0.013.008-.024,0.017-0.037,0.024l-8.654,5.8Zm207.675,71.881a8.3159,8.3159,0,0,0-10.361,4.548l-33.87,77.68a8.36491,8.36491,0,0,0,4.284,11l38.613,16.953a8.31289,8.31289,0,0,0,10.949-4.285l0.012-.026,4.173-9.57,31.08,13.646a8.31709,8.31709,0,0,0,10.952-4.287l0.01-.024,18.846-43.222a8.36532,8.36532,0,0,0-4.283-11l-31.08-13.646,4.173-9.568a8.36491,8.36491,0,0,0-4.284-11l-38.612-16.954C313.591,529.294,313.391,529.213,313.189,529.141ZM287.542,610.4l27.19-62.363,23.367,10.264-4.173,9.568a8.36446,8.36446,0,0,0,4.283,11l31.081,13.646-12.167,27.9-31.08-13.646a8.24014,8.24014,0,0,0-6.368-.123,8.34331,8.34331,0,0,0-4.594,4.434l-4.173,9.571Zm-75.9,27.736a8.30953,8.30953,0,0,0-10,3.823l-20.566,36.976a8.37242,8.37242,0,0,0,3.199,11.37l9.078,5.088L176.8,725.157a8.3745,8.3745,0,0,0,3.2,11.371l41,22.972a8.29972,8.29972,0,0,0,11.299-3.181c0.009-.016.018-0.031,0.026-0.047l16.554-29.761,9.078,5.088a8.30844,8.30844,0,0,0,11.307-3.195l0.019-.033,20.566-36.971a8.37275,8.37275,0,0,0-3.2-11.37l-73.682-41.293a8.32643,8.32643,0,0,0-1.324-.597ZM199.66,679.777l12.446-22.376,59.152,33.15-12.447,22.378-9.077-5.088a8.309,8.309,0,0,0-11.307,3.194l-0.018.033-16.556,29.761L195.388,726l16.555-29.76a8.37189,8.37189,0,0,0-3.205-11.371Zm155.589-386.6a8.3147,8.3147,0,0,0-10.236,4.3l-14.652,30.749-9.381-4.5a8.32034,8.32034,0,0,0-11.093,3.926l-0.007.014-18.2,38.2a8.36976,8.36976,0,0,0,3.913,11.145l76.133,36.539a8.31537,8.31537,0,0,0,11.088-3.914,0.20872,0.20872,0,0,1,.013-0.026l18.199-38.2a8.368,8.368,0,0,0-3.913-11.145l-9.379-4.5,14.651-30.749a8.36966,8.36966,0,0,0-3.912-11.145l-42.362-20.33a8.58338,8.58338,0,0,0-.862-0.364h0Zm-23.706,54.088a8.31492,8.31492,0,0,0,10.235-4.3l14.652-30.75,27.351,13.127L369.129,356.1a8.36952,8.36952,0,0,0,3.913,11.144l9.38,4.5L371.405,394.86l-61.121-29.333L321.3,342.408l9.381,4.5a8.07343,8.07343,0,0,0,.862.357h0Zm318.309-10.513a8.29041,8.29041,0,0,0-6.5.442l-84.181,42.917a8.3742,8.3742,0,0,0,.08,14.951l84.635,41.854a8.27213,8.27213,0,0,0,8.1-.418,8.36979,8.36979,0,0,0,3.908-7.134l-0.454-84.77a8.33938,8.33938,0,0,0-5.58807-7.842h0Zm-68.313,50.693,57.323-29.224,0.31,57.725Zm-427.611-222.5a8.29912,8.29912,0,0,0-9.861,3.577L95.245,249.675a8.38581,8.38581,0,0,0,.086,8.787,8.30038,8.30038,0,0,0,7.863,3.846l93.9-9.524A8.36836,8.36836,0,0,0,203.305,240l-45.079-71.63a8.32266,8.32266,0,0,0-4.298-3.425h0ZM118.1,244l33.246-55.261,30.7,48.776Zm316.466-58.461a8.30081,8.30081,0,0,0-6.729.564L353.766,226.82a8.37839,8.37839,0,0,0-.756,14.2l77.511,53.995a8.33023,8.33023,0,0,0,13.065-7.182l-3.441-94.712a8.33366,8.33366,0,0,0-5.578-7.585Zm-61,49.447L424,207.258l2.343,64.494ZM365.825,437.26a8.30051,8.30051,0,0,0-8.5,1.862,8.39126,8.39126,0,0,0-2.194,8.511l27.899,90.516a8.29844,8.29844,0,0,0,13.706,3.553L457.7,483.016a8.37266,8.37266,0,0,0-2.954-13.901l-88.862-31.831Zm29.129,83.018-19-61.637,60.511,21.675Zm175.776,69.9a8.29761,8.29761,0,0,0-9.545,3.088l-54.335,77.54a8.36043,8.36043,0,0,0,5.561,13.071l83.462,12.584a8.35432,8.35432,0,0,0,9.158-10.853l-29.127-90.124a8.32333,8.32333,0,0,0-5.174-5.30591h0Zm-42.519,79.177,37-52.8,19.834,61.371ZM118.593,291.023a8.29608,8.29608,0,0,0-6.953.69L30.259,339.776a8.3774,8.3774,0,0,0-.321,14.216l70.779,46.125a8.322,8.322,0,0,0,12.8-6.081l10.601-94.187A8.34018,8.34018,0,0,0,118.593,291.023ZM50.3,347.325L105.715,314.6l-7.22,64.138ZM237.573,516.42a8.28866,8.28866,0,0,0-7.37.955l-78.4,52.836a8.37691,8.37691,0,0,0,.522,14.21l73.388,41.813a8.28429,8.28429,0,0,0,8.1.06,8.37171,8.37171,0,0,0,4.317-6.895l5.007-94.648A8.33266,8.33266,0,0,0,237.573,516.42Zm-65.316,60.13,53.384-35.979-3.409,64.451ZM389.663,650.7a8.32741,8.32741,0,0,0-11.042,7.34406l-6.313,94.571a8.31712,8.31712,0,0,0,12.84,7.555l79.116-51.74a8.37586,8.37586,0,0,0-.325-14.216l-72.8-42.831A8.29357,8.29357,0,0,0,389.663,650.7Zm0.365,86.339,4.301-64.399L443.9,701.81ZM336.951,65.074a8.32759,8.32759,0,0,0-11.042,7.343l-6.31,94.571a8.31707,8.31707,0,0,0,12.84,7.555l79.116-51.739a8.37743,8.37743,0,0,0-.326-14.217l-72.8-42.832A8.2773,8.2773,0,0,0,336.951,65.074Zm0.366,86.339,4.301-64.399,49.575,29.165ZM608.192,75.1a8.31133,8.31133,0,0,0-10,3.822L577.62,115.9a8.37362,8.37362,0,0,0,3.2,11.37l9.078,5.088-16.555,29.761a8.37072,8.37072,0,0,0,3.205,11.37l41,22.976a8.2995,8.2995,0,0,0,11.298-3.182c0.009-.016.018-0.03,0.025-0.046l16.556-29.761,9.077,5.088a8.30842,8.30842,0,0,0,11.307-3.195l0.018-.033,20.57-36.979a8.37362,8.37362,0,0,0-3.2-11.371L609.512,75.694A8.19,8.19,0,0,0,608.192,75.1ZM596.21,116.739l12.446-22.377,59.152,33.151L655.361,149.89l-9.077-5.088A8.30894,8.30894,0,0,0,634.976,148l-0.018.03-16.554,29.76-26.469-14.833,16.555-29.758a8.37185,8.37185,0,0,0-3.2-11.37ZM1152.78,374.9a49.71927,49.71927,0,1,0-.318-0.204C1152.568,374.764,1152.673,374.833,1152.78,374.9Zm45.02-70.317a33.517,33.517,0,1,1-46.27515,10.269c0.032-.05.063-0.099,0.095-0.148a33.63233,33.63233,0,0,1,46.181-10.116v-0.005H1197.8ZM883.975,267.383a8.20811,8.20811,0,0,0,6.054,4.266l82.424,12.063a8.22963,8.22963,0,0,0,8.991-10.711l-29.137-88.645a8.19945,8.19945,0,0,0-14.536-2.128L884.484,258.8a8.2481,8.2481,0,0,0-.8,7.978,6.5184,6.5184,0,0,0,.291.614v-0.009H883.975Zm77.711-1.886-56.127-8.215,36.286-52.147ZM766.944,867.032a8.19493,8.19493,0,0,0-11.516-1.291,8.46869,8.46869,0,0,0-.678.605l-66.1,65.814a8.23479,8.23479,0,0,0,4.592,13.986l92.131,13.485a8.23421,8.23421,0,0,0,8.993-10.728l-26.033-79.3A8.22275,8.22275,0,0,0,766.944,867.032Zm-55.06494,65.2,45.009-44.817,17.728,54ZM11.477,391.563a50.57266,50.57266,0,0,0-64.335,31.244l-0.009.024a50.8136,50.8136,0,0,0,31.078,64.593,50.5737,50.5737,0,0,0,64.335-31.246l0.008-.023A50.8136,50.8136,0,0,0,11.477,391.563ZM-16.31,471.635a34.0761,34.0761,0,0,1-20.84-43.314A33.91339,33.91339,0,0,1,5.98,407.345l0.021,0.007a34.07335,34.07335,0,0,1,20.84,43.313,33.91257,33.91257,0,0,1-43.13,20.976l-0.021-.006h0Zm0.9-125.781a8.19356,8.19356,0,0,0,10.971-1.967L45.87,277.271a8.2533,8.2533,0,0,0-1.58-11.538L11.165,240.556A8.19275,8.19275,0,0,0-.315,242.13l-0.02.025-6.2,8.208L-33.2,230.1a8.1827,8.1827,0,0,0-6.077-1.592,8.21688,8.21688,0,0,0-5.422,3.188L-72.69,268.76a8.2686,8.2686,0,0,0-1.592,6.1,8.2332,8.2332,0,0,0,3.172,5.438l26.664,20.266-6.2,8.207a8.26089,8.26089,0,0,0-1.592,6.1,8.23315,8.23315,0,0,0,3.172,5.439l33.128,25.176c0.176,0.131.353,0.253,0.531,0.369H-15.41v-0.001ZM27.833,273.9l-40.389,53.481L-32.6,312.142l6.2-8.207a8.26218,8.26218,0,0,0,1.592-6.101,8.23321,8.23321,0,0,0-3.172-5.438L-54.65,272.13l18.072-23.93,26.665,20.264a8.13159,8.13159,0,0,0,6.077,1.592,8.21349,8.21349,0,0,0,5.423-3.188l6.2-8.208Zm36-153.577A50.73559,50.73559,0,1,0,94.878,185.01c0.011-.032.021-0.063,0.033-0.095a50.5743,50.5743,0,0,0-30.864-64.521c-0.07-.024-0.14-0.049-0.21-0.073ZM36.051,200.394a34.023,34.023,0,1,1,43.214-21.158c-0.021.063-.043,0.126-0.064,0.188A34.078,34.078,0,0,1,36.051,200.394ZM128.515,16.86a8.29666,8.29666,0,0,0-6.729.563L47.714,58.141a8.3769,8.3769,0,0,0-.756,14.199l77.511,54a8.32988,8.32988,0,0,0,13.065-7.18l-3.441-94.713A8.33591,8.33591,0,0,0,128.515,16.86Zm-61,49.447L117.951,38.58l2.343,64.494ZM-65.077,118.7a50.57409,50.57409,0,0,0-64.336,31.247l-0.008.023a50.81236,50.81236,0,0,0,31.079,64.591,50.57233,50.57233,0,0,0,64.333-31.249l0.009-.025A50.81394,50.81394,0,0,0-65.077,118.7Zm-27.787,80.073a34.07561,34.07561,0,0,1-20.836-43.32,33.91542,33.91542,0,0,1,43.134-20.974l0.014,0.005a34.074,34.074,0,0,1,20.837,43.315,33.91542,33.91542,0,0,1-43.134,20.974l-0.014-.005Zm37.252-221.3a8.29649,8.29649,0,0,0-5.768.112,8.3486,8.3486,0,0,0-4.595,4.436L-99.843,59.7a8.38826,8.38826,0,0,0-.13,6.4,8.3299,8.3299,0,0,0,4.412,4.608l38.614,16.953a8.294,8.294,0,0,0,6.368.123,8.34832,8.34832,0,0,0,4.594-4.435l4.173-9.571,31.079,13.646a8.276,8.276,0,0,0,6.368.123A8.3425,8.3425,0,0,0,.23,83.109L19.076,39.887a8.36631,8.36631,0,0,0-4.283-11.006l-31.08-13.646,4.172-9.569a8.38579,8.38579,0,0,0,.129-6.399A8.32477,8.32477,0,0,0-16.4-5.338L-55.011-22.292c-0.198-.086-0.398-0.165-0.601-0.235h0ZM-81.258,58.735l27.19-62.363L-30.7,6.633-34.872,16.2A8.38825,8.38825,0,0,0-35,22.6a8.32659,8.32659,0,0,0,4.412,4.608L0.491,40.854-11.676,68.753l-31.08-13.645a8.24033,8.24033,0,0,0-6.368-.123,8.34334,8.34334,0,0,0-4.594,4.434l-4.174,9.571Zm-52.073,257.894a8.28948,8.28948,0,0,0-6.631.51,8.3643,8.3643,0,0,0-4.411,6.832l-6.313,94.572a8.36028,8.36028,0,0,0,4.093,7.765,8.29006,8.29006,0,0,0,8.746-.211l79.117-51.74a8.37415,8.37415,0,0,0,3.783-7.2,8.35579,8.35579,0,0,0-4.109-7.014l-72.8-42.831a8.08861,8.08861,0,0,0-1.475-.683h0Zm0.366,86.338,4.3-64.4,49.576,29.165ZM957.325,707.533a50.73468,50.73468,0,1,0,31.04,64.688c0.012-.032.023-0.064,0.034-0.097a50.57213,50.57213,0,0,0-30.863-64.518C957.466,707.582,957.396,707.557,957.325,707.533Zm-27.787,80.072a34.02333,34.02333,0,1,1,43.214-21.159c-0.021.063-.043,0.127-0.065,0.19a34.07714,34.07714,0,0,1-43.149,20.969h0Z" transform="translate(237.00892 22.99007)"/>
</svg>
